<svg xmlns="http://www.w3.org/2000/svg" viewBox="0 0 500 500">
  <g transform="matrix(0.00996, 0, 0, -0.009879, 7.676062, 479.527069)" fill="#ffffff" stroke="none" style="">
    <path d="M23945 45614 c-2685 -114 -5310 -712 -7730 -1762 -565 -245 -1341 -625 -1858 -910 -2419 -1336 -4514 -3080 -6318 -5262 -579 -701 -1255 -1660 -1755 -2492 -915 -1521 -1606 -3080 -2123 -4783 -501 -1647 -797 -3421 -872 -5220 -17 -403 -14 -1325 5 -1720 56 -1140 167 -2062 382 -3161 357 -1832 1016 -3745 1861 -5405 l146 -285 -1143 -4025 c-628 -2213 -1157 -4082 -1176 -4154 -207 -801 -45 -1617 450 -2270 401 -529 986 -892 1642 -1019 206 -39 340 -49 597 -43 269 7 406 27 687 101 96 25 1988 545 4204 1154 l4029 1109 306 -150 c2717 -1328 5653 -2071 8696 -2202 417 -18 1269 -20 1683 -5 2382 89 4655 541 6862 1365 748 280 1399 565 2155 945 2015 1013 3837 2321 5448 3910 562 554 1101 1141 1529 1665 1052 1290 1886 2572 2599 3998 1089 2175 1785 4505 2069 6918 146 1241 179 2610 95 3859 -188 2792 -916 5473 -2157 7955 -717 1431 -1562 2734 -2582 3980 -462 565 -980 1131 -1553 1695 -1425 1406 -3008 2586 -4768 3556 -310 170 -985 511 -1325 669 -2621 1214 -5440 1886 -8372 1995 -369 13 -1338 10 -1713 -6z m9040 -15504 c796 -27 1354 -97 1946 -245 1374 -344 2530 -1217 3256 -2460 836 -1430 1071 -3228 642 -4905 -53 -205 -191 -616 -274 -815 -234 -561 -523 -1035 -894 -1470 -121 -142 -396 -421 -526 -532 -646 -558 -1405 -925 -2290 -1107 -953 -197 -1856 -240 -3825 -186 -760 20 -877 21 -6025 18 -5209 -4 -5254 -4 -5735 -26 -1373 -61 -2290 -57 -2955 13 -887 95 -1558 273 -2180 580 -532 263 -995 600 -1416 1032 -685 704 -1178 1588 -1453 2603 -150 554 -217 1070 -219 1680 -1 315 5 430 39 735 65 583 234 1213 474 1763 109 250 331 656 481 878 317 470 761 944 1169 1246 715 530 1521 846 2642 1037 869 149 1728 178 3443 116 226 -8 644 -19 930 -25 674 -13 9170 -13 9733 0 227 5 695 21 1040 35 1038 43 1505 51 1997 35z" fill="#ffffff"/>
  </g>
  <path style="fill: #ffffff; stroke: none;" d="M 174.083 216.48 C 146.525 221.404 153.27 265.172 180.709 260.017 C 207.991 254.899 201.341 211.594 174.083 216.48 M 332.288 216.48 C 304.946 221.611 311.68 264.892 338.914 260.017 C 366.471 255.093 359.738 211.338 332.288 216.48 M 231.889 230.267 C 221.518 234.376 228.241 247.92 233.264 253.55 C 241.685 262.971 256.505 265.865 267.867 260.782 C 275.223 257.488 281.694 250.193 283.476 242.121 C 284.72 236.406 281.968 229.769 275.45 229.769 C 264.781 229.769 266.431 246.778 253.67 244.808 C 243.994 243.312 242.833 225.939 231.889 230.267 Z"/>
</svg>